# xmcd
#
# Track frame offsets:
#	150
#	18023
#	38588
#	57667
#	71536
#	87380
#	102641
#	118375
#	133542
#	151121
#	163738
#	181710
#	199017
#	217044
#	235978
#	252539
#	269790
#	286650
#	303331
#	322909
#
# Disc length: 4550 seconds
#
# Revision: 0
# Processed by: cddbd v1.5.2PL0 Copyright (c) Steve Scherf et al.
# Submitted via: EZCDAudioConverter 3.1.7.1
#
DISCID=2211c414
DTITLE=Various Artist - So Fresh: Summer Hits 2015
DYEAR=2015
DGENRE=
TTITLE0=Maroon 5 - Sugar
TTITLE1=Mark Ronson - Uptown Funk (feat.Bruno Mars)
TTITLE2=Ellie Goulding - Love Me Like You Do
TTITLE3=Meghan Trainor - Lips Are Movin
TTITLE4=Jessie J - Flashlight
TTITLE5=Kelly Clarkson - Heartbeat Song
TTITLE6=Carly Rae Jepsen - I Really Like You
TTITLE7=Walk The Moon - Shut Up And Dance
TTITLE8=Imagine Dragons - Shots
TTITLE9=Britney Spears and Iggy Azalea - Pretty Girls
TTITLE10=Ariana Grande and The Weeknd - Love Me Harder
TTITLE11=Calvin Harris - Outside (feat.Ellie Goulding)
TTITLE12=Tove Lo - Talking Body
TTITLE13=Lenka - Blue Skies
TTITLE14=James Bay - Hold Back The River
TTITLE15=One Direction - Night Changes
TTITLE16=Hozier - Someone New
TTITLE17=Sam Smith - Lay Me Down
TTITLE18=Sia - Elastic Heart
TTITLE19=The Script - Man On A Wire
EXTD=
EXTT0=
EXTT1=
EXTT2=
EXTT3=
EXTT4=
EXTT5=
EXTT6=
EXTT7=
EXTT8=
EXTT9=
EXTT10=
EXTT11=
EXTT12=
EXTT13=
EXTT14=
EXTT15=
EXTT16=
EXTT17=
EXTT18=
EXTT19=
PLAYORDER=
